# xmcd
#
# Track frame offsets: 
#        150
#        28242
#        48957
#        82185
#        107367
#        129715
#        156843
#        176775
#        200468
#
# Disc length: 3105 seconds
#
# Revision: 3
# Processed by: cddbd v1.5.2PL0 Copyright (c) Steve Scherf et al.
# Submitted via: ExactAudioCopy v1.0b1
#
DISCID=780c1f09
DTITLE=Tran Manh Tuan - Ve que
DYEAR=2003
DGENRE=Jazz
TTITLE0=01. Ve que
TTITLE1=02. Ngoc dong Huong Giang
TTITLE2=03. Chi toi
TTITLE3=04. Chi toi
TTITLE4=05. Me yeu con
TTITLE5=06. Huyen thoai me
TTITLE6=07. Tro ve dong song tuoi tho
TTITLE7=08. Que huong
TTITLE8=09. Thang 4 ve
EXTD=
EXTT0=
EXTT1=
EXTT2=
EXTT3=
EXTT4=
EXTT5=
EXTT6=
EXTT7=
EXTT8=
PLAYORDER=
